<svg width="129" height="80" viewBox="0 0 129 80" fill="none" xmlns="http://www.w3.org/2000/svg">
<g clip-path="url(#clip0_1948_4476)">
<path d="M16.617 24.8125H27.5245V31.1937C26.0954 32.4756 23.5767 33.6956 20.2626 33.6956C13.6277 33.6956 9.82167 28.9625 9.82167 20.711C9.82167 12.8378 13.6986 8.13842 20.2065 8.13842C23.816 8.13842 26.7745 9.13755 29.5245 11.2826L30.975 12.4137L35.7489 5.97455L34.4121 4.87444C31.6755 2.60553 27.5873 0 20.2346 0C8.78024 0 1.08789 8.37407 1.08789 20.8362C1.08789 36.4829 11.1532 42.036 19.7733 42.036C26.2812 42.036 31.8573 39.6701 35.4776 35.3747L35.9067 34.867V17.0538H16.617V24.8125Z" fill="#13191E"/>
<path d="M72.1808 13.4289C72.1808 8.7012 70.2263 0.771484 57.1397 0.771484H42.6934V41.5121H51.2V27.422H57.0621L65.5245 41.5121H75.2703L65.4871 25.553C69.7704 23.2518 72.1808 18.9429 72.1808 13.4289ZM51.1919 8.681H56.6317C62.2251 8.681 63.3708 10.7695 63.3708 13.9069C63.3708 17.4442 61.3 19.4721 57.6918 19.4721H51.1986L51.1919 8.681Z" fill="#13191E"/>
<path d="M89.3008 0.771484H80.793V41.5121H89.3008V0.771484Z" fill="#13191E"/>
<path d="M108.64 0.771484H96.0957V41.5121H108.64C120.774 41.5121 128.614 33.406 128.614 20.8604C128.614 8.28108 121.146 0.771484 108.64 0.771484ZM109.137 33.3279H104.654V8.83046H109.137C116.466 8.83046 119.879 12.6533 119.879 20.8604C119.879 29.2492 116.366 33.3279 109.137 33.3279Z" fill="#13191E"/>
<path d="M0.849609 52.0178V80H128.85V52.0178H0.849609ZM2.87229 77.9641V54.0551H126.828V77.9641H2.87229Z" fill="#13191E"/>
</g>
<defs>
<clipPath id="clip0_1948_4476">
<rect width="129" height="80" fill="white"/>
</clipPath>
</defs>
</svg>
