<svg xmlns="http://www.w3.org/2000/svg" width="132" height="84" viewBox="0 0 132 84" fill="none"><path d="M17.7674 26.8125H28.6749V33.1937C27.2458 34.4756 24.7271 35.6956 21.413 35.6956C14.7781 35.6956 10.9721 30.9625 10.9721 22.711C10.9721 14.8378 14.849 10.1384 21.3569 10.1384C24.9664 10.1384 27.9249 11.1375 30.6749 13.2826L32.1254 14.4137L36.8993 7.97455L35.5624 6.87444C32.8259 4.60553 28.7377 2 21.3849 2C9.93063 2 2.23828 10.3741 2.23828 22.8362C2.23828 38.4829 12.3036 44.036 20.9237 44.036C27.4316 44.036 33.0077 41.6701 36.6279 37.3747L37.0571 36.867V19.0538H17.7674V26.8125Z" fill="#F3F3F3"></path><path d="M73.3311 15.4289C73.3311 10.7012 71.3766 2.77148 58.29 2.77148H43.8438V43.5121H52.3503V29.422H58.2124L66.6748 43.5121H76.4206L66.6374 27.553C70.9207 25.2518 73.3311 20.9429 73.3311 15.4289ZM52.3422 10.681H57.782C63.3754 10.681 64.5211 12.7695 64.5211 15.9069C64.5211 19.4442 62.4503 21.4721 58.8421 21.4721H52.3489L52.3422 10.681Z" fill="#F3F3F3"></path><path d="M90.4512 2.77148H81.9434V43.5121H90.4512V2.77148Z" fill="#F3F3F3"></path><path d="M109.79 2.77148H97.2461V43.5121H109.79C121.923 43.5121 129.764 35.406 129.764 22.8604C129.764 10.2811 122.296 2.77148 109.79 2.77148ZM110.287 35.3279H105.803V10.8305H110.287C117.616 10.8305 121.029 14.6533 121.029 22.8604C121.029 31.2492 117.516 35.3279 110.287 35.3279Z" fill="#F3F3F3"></path><path d="M2 54.0176V81.9998H130V54.0176H2ZM4.02269 79.9639V56.0549H127.979V79.9639H4.02269Z" fill="#F3F3F3"></path></svg>